<?xml version="1.0" encoding="UTF-8"?>
<svg id="Layer_1" xmlns="http://www.w3.org/2000/svg" version="1.1" viewBox="0 0 454.3 454.3">
  <!-- Generator: Adobe Illustrator 29.3.1, SVG Export Plug-In . SVG Version: 2.1.0 Build 151)  -->
  <defs>
    <style>
      .st0, .st1 {
        fill: #fff;
      }

      .st0, .st2 {
        font-family: Poppins-Black, Poppins;
        font-size: 18px;
        font-weight: 800;
      }

      .st3 {
        fill: none;
      }

      .st4, .st2 {
        fill: #18191a;
      }

      .st5 {
        fill: #f9f5ed;
      }

      .st6 {
        fill: #399434;
      }

      .st7 {
        fill: #fae3b9;
      }

      .st8 {
        fill: #e32c21;
      }
    </style>
  </defs>
  <g>
    <g>
      <polygon class="st5" points="404.4 -107.7 321.4 -190.6 345.8 -199.5 410.5 -156.2 411.5 -151.2 404.4 -107.7"/>
      <polygon class="st5" points="382.4 -97.7 336.6 -85.9 296.6 -142.4 305.4 -169.2 382.4 -97.7"/>
      <path class="st5" d="M321.9-162.1c-20-19.1-39.2-39.2-60-57.6-1.1-2.2,6.8-9,9.1-10,11.2,9.4,22.3,19.8,33,30,36.2,34.7,70.8,72,107,107,4.1,2.8,1.6,9.2-2.9,8.8-4.3-.4-11.2-9.2-14.7-12.3-24.5-21.5-48.1-43.4-71.6-65.9h.1Z"/>
    </g>
    <path class="st5" d="M154.4-187.7c2.6.5,1.6-.3,2.1-1.4.9-1.8,1.7-6.8,3.5-7.5,6.8-2.4,6.3,7.4,7.4,11.9,1.4.2,1.5-2.7,1.7-3.8.4-2.1.4-4.1.3-6.2.4-.4,9.3.6,10.3,1,1.7.6,2,10.8,4.7,12,1.4-9-1.2-13.6,10.4-12.1l3.6,14.1c1.1-2.9.8-13.9,3.6-14.9s10,.6,10.4.9c.7.7-1.7,9.1,2,10,.4-1.7,1.9-9.6,2.6-10.1s9.5-2.5,10.3-1.8,1,7.8,2.6,8.9c2.6-1.5,2.1-11.5,2.6-11.9s11.1-2.3,12.9-3c-.3,6.8.8,13.7,2.1,20.4-.3,1.9-30.1,12.7-34.3,13.9-18.5,5.1-27,4.3-45.3-1.2-4.4-1.3-25.3-9-27.5-11.5s1.5-16.8,0-21.5c7.8,3.3,15.7,3,14,14v-.2Z"/>
    <g>
      <polygon class="st5" points="68.4 -190.7 -16.6 -106.7 -23.4 -156.5 42.2 -199.5 68.4 -190.7"/>
      <path class="st5" d="M84.4-168.7l7.8,26.3-41.2,55.8c-1.1,1.2-2.4.9-3.8.7-13.2-1.5-28.2-9.5-41.8-10.8l79-72Z"/>
      <path class="st5" d="M116.6-228.5c2.2-1.3,12.3,7.6,8.9,10.4C78.8-172.7,32.3-127.1-17.2-84.7c-5,2.7-9.9-4-4.8-7.9,45-42.9,87.9-88.3,134-130,1.7-1.5,4.3-5.7,4.6-5.9Z"/>
    </g>
  </g>
  <g>
    <path class="st5" d="M258.4-402.1c-32.9-23.9-91.8-24.3-126.2-3.4-24.9,15.1-50.9,58.3-44.2,87.8,4.8,20.9,20.3,26.4,14.8,50.8-2.2,9.9-7.2,11.4,3.2,18.2,9.2,6,18.8,6.2,29.4,7.1,2.1,4.3,3,9,3.8,13.7.7,3.9.7,13.5,1.4,15.5.8,2.4,12,3.4,12.8,2.6.4-.4-.5-4.7,2-5,0,7.4,3.8,7.3,10,8l2.5-14c2.5,4.1-.7,12.9,5,14,9.8,1.9,6.9-4.7,8.5-12,1.6.9,2.1,5.1,2.5,7,.3,1.4.3,4.8.5,5,.4.4,10.5.3,11,0,.4-.4,1-11,2.5-11l2.5,10.6c3.1-1.5,10.2.6,11.5.3,2.6-.6,1.1-10.1,2.6-12.9l3,13c6.2-.3,11.2-.9,12-8,2.2,0,.4,4.4,1,5,1.1,1,12.4-1.9,15-1.1,1.1-6,2-27.5,6.5-31.1,2.2-1.8,3.8.2,6,0,7-.6,14.3-2,20.5-5.5,1.6-.9,8.5-5.9,8.9-7.1.7-2.6-3.3-11.1-3.8-14.9-2.6-22.2,8.5-26,13.9-43.9,9.1-29.9-15.1-71.5-39.1-88.9v.2ZM193-386.7c18,0,32.6,14.6,32.6,32.6s-14.6,32.6-32.6,32.6-32.6-14.6-32.6-32.6,14.6-32.6,32.6-32.6h0ZM110-338.6c2.5-7.7,7.4-15.2,13-21-1.1,4.9-3.5,9.2-5,14-1.8,5.8-2.5,12.7-4.7,18.3-.8,1.9-1.8,5.5-4.3,5.7-3.8-.8.2-14.5,1-17ZM194.4-247.7c-4.4,4.7-9.6,10.5-17,7.5-10-4.2,1.6-26,6.9-31,13.7-12.8,28.5,11.3,28.8,23.3.3,12.1-17.2,10.6-18.8.2h.1ZM265.7-273.9c-11.6,17.2-34.3,15-48.1,1.7-2.9-2.8-6.4-10.5-8.2-11.9-2.5-1.8-12.8-3.7-16.3-6.3-3.8,4-12.9,4.3-16.2,6.7-1.9,1.4-4,6.8-5.9,9.1-11.9,14.5-37.2,19.2-49.5,2.5-6.9-9.4-24.2-44.1-4.3-47.3,16.3-2.6,38.3,15.5,52.9,21.7,5.9,2.5,9.2,2.5,14.7-1.1,2.4-1.6,6.9-8.1,8.2-7.8,4.4,6,9.5,12.5,17.8,10.8,8.2-1.7,27.3-14.9,37-18.9,42.3-17.6,33.3,18,17.9,40.9h0ZM276.5-321.7l-13-37c6,5.1,11.1,14.5,13.4,22,.5,1.7,4.8,18.6-.4,15Z"/>
    <g>
      <g>
        <polygon class="st5" points="66.4 -385.7 42.1 -375.9 -23.1 -412.7 -16.6 -463.7 66.4 -385.7"/>
        <path class="st5" d="M47.3-491.6l39.9,58.7c.7,2.8-7,25.9-8.3,26.2L3.5-477.2s43.8-14.4,43.8-14.4Z"/>
        <path class="st5" d="M-20.9-486.5c1.7-.5,3.6-.4,5.3.3s10.9,9.1,13,11c33.7,28.8,65.2,60.3,98.1,90,2.5,2.4-5.7,10.5-7.4,10.4s-20.7-17.6-23.7-20.3c-27.3-24.8-54.1-50.8-80.5-76.5s-12.9-12.4-4.8-14.8h0Z"/>
      </g>
      <g>
        <path class="st5" d="M389.4-477.7c1,1.2-4.8,6.4-6,7.5-20.1,19.1-46.7,41-68.5,58.5-1,.8-5.6,4.7-6.5,4l-8.8-24.3,41.3-58.8s48.5,13.1,48.5,13.1Z"/>
        <polygon class="st5" points="325.4 -384.7 405.4 -459.7 411.9 -412.6 347.5 -376.2 325.4 -384.7"/>
        <path class="st5" d="M400-463c-31,31.2-64.6,59.8-96.6,89.9-3.8,1.7-8-6-11-8l116-105c4.1-1.9,8,2.6,6.8,6.8-1.2,4.2-12.3,13.4-15.2,16.3h0Z"/>
      </g>
    </g>
  </g>
  <path d="M-225,215.8H-20.8v-1h-201.1L-30.7,152.7l-.3-1-194.2,63.1h-3.2l2.6-1.9L-31.6,149.8l-.3-1-191.2,62.1L-60.5,92.8l-.6-.8-165.2,120-3.1,1,1.9-2.6L-62.2,90.4l-.6-.8-162.7,118.2L-107.3,45.1l-.8-.6-120,165.2-2.6,1.9,1-3.1L-109.8,43.3l-.8-.6-118.2,162.7L-166.6,14.2l-1-.3-63.1,194.2-1.9,2.6v-3.2L-169.5,13.2l-1-.3-62.1,191.2V3.1h-1v204.2l-1,3.1-1-3.1V3.1h-1v201.1L-298.7,12.9l-1,.3,63.1,194.2v3.2l-1.9-2.6L-301.6,13.9l-1,.3,62.1,191.3-118.2-162.7-.8.6,120,165.2,1,3.1-2.6-1.9-120-165.2-.8.6,118.2,162.7-162.7-118.2-.6.8,165.2,120,1.9,2.6-3.1-1-165.2-120-.6.8,162.7,118.2-191.3-62.1-.3,1,194.2,63.1,2.6,1.9h-3.2l-194.2-63.1-.3,1,191.3,62.1h-201.1v1h204.2l3.1,1-3.1,1h-204.2v1h201.1l-191.2,62.1.3,1,194.2-63.1h3.2l-2.6,1.9-194.2,63.1.3,1,191.3-62.1-162.7,118.2.6.8,165.2-120,3.1-1-1.9,2.6-165.2,120,.6.8,162.7-118.2-118.2,162.7.8.6,120-165.2,2.6-1.9-1,3.1-120,165.2.8.6,118.2-162.7-62.1,191.2,1,.3,63.1-194.2,1.9-2.6v3.2l-63.1,194.2,1,.3,62.1-191.2v201.1h1v-204.2l1-3.1,1,3.1v204.2h1v-201.1l62.1,191.2,1-.3-63.1-194.2v-3.2l1.9,2.6,63.1,194.2,1-.3-62.1-191.3,118.2,162.7.8-.6-120-165.2-1-3.1,2.6,1.9,120,165.2.8-.6-118.2-162.7,162.7,118.2.6-.8-165.2-120-1.9-2.6,3.1,1,165.2,120,.6-.8-162.7-118.2,191.3,62.1.3-1-194.2-63.1-2.6-1.9h3.2l194.2,63.1.3-1-191.3-62.1H-20.8v-1h-204.2l-3.1-1,3.1-1ZM-228.3,215.8l-1.5.5-.5-.2.4-.3h1.5ZM-233.6,217v.3c0,0-.3.3-.3.3l-.3.2h-.3c0,0-.3,0-.3,0h-.3c0,0-.3-.3-.3-.3l-.2-.3v-.3c0,0,0-.3,0-.3v-.3c0,0,.3-.3.3-.3l.3-.2h.3c0,0,.3,0,.3,0h.3c0,0,.3.3.3.3l.2.3v.3c0,0,0,.3,0,.3ZM-228.9,213.9l-1.2.9h-.5l.3-.4,1.5-.5ZM-230,212.3l-.9,1.2-.5.2.2-.5,1.2-.9ZM-231.7,211.1l-.5,1.5-.4.3v-.5l.9-1.2ZM-233.6,210.5v1.5l-.3.4-.2-.5.5-1.5ZM-235.6,210.5l.5,1.5-.2.5-.3-.4v-1.5ZM-237.5,211.1l.9,1.2v.5l-.4-.3-.5-1.5ZM-239.1,212.3l1.2.9.2.5-.5-.2-.9-1.2ZM-240.3,213.9l1.5.5.3.4h-.5l-1.2-.9ZM-240.9,215.8h1.5l.4.3-.5.2-1.5-.5ZM-240.9,217.8l1.5-.5.5.2-.4.3h-1.5ZM-240.3,219.7l1.2-.9h.5l-.3.4-1.5.5ZM-239.1,221.3l.9-1.2.5-.2-.2.5-1.2.9ZM-237.5,222.5l.5-1.5.4-.3v.5l-.9,1.2ZM-235.6,223.1v-1.5l.3-.4.2.5-.5,1.5ZM-233.6,223.1l-.5-1.5.2-.5.3.4v1.5ZM-231.7,222.5l-.9-1.2v-.5l.4.3.5,1.5ZM-230,221.3l-1.2-.9-.2-.5.5.2.9,1.2ZM-228.9,219.7l-1.5-.5-.3-.4h.5l1.2.9ZM-228.3,217.8h-1.5l-.4-.3.5-.2,1.5.5Z"/>
  <rect x="-213.3" y="402" width="3" height="373.5" transform="translate(-478.4 22.7) rotate(-45)"/>
  <rect x="-398.6" y="587.3" width="373.5" height="3" transform="translate(-478.4 22.7) rotate(-45)"/>
  <rect x="-398.5" y="587.3" width="373.5" height="3" transform="translate(-159.5 -34.7) rotate(-15)"/>
  <rect x="-213.3" y="402" width="3" height="373.5" transform="translate(-159.6 -34.8) rotate(-15)"/>
  <rect x="-213.3" y="402" width="3" height="373.5" transform="translate(-725.7 231.8) rotate(-75)"/>
  <rect x="-398.5" y="587.3" width="373.5" height="3" transform="translate(-725.6 231.7) rotate(-75)"/>
  <text class="st2" transform="translate(669.3 468.8)"><tspan x="0" y="0">11</tspan></text>
  <text class="st0" transform="translate(621.4 458.6) rotate(18)"><tspan x="0" y="0">14</tspan></text>
  <text class="st0" transform="translate(716.3 462.7) rotate(-18)"><tspan x="0" y="0">8</tspan></text>
  <text class="st0" transform="translate(669.3 422.5)"><tspan x="0" y="0">11</tspan></text>
  <text class="st2" transform="translate(621.4 412.3) rotate(18)"><tspan x="0" y="0">14</tspan></text>
  <text class="st2" transform="translate(716.3 416.4) rotate(-18)"><tspan x="0" y="0">8</tspan></text>
  <g>
    <g>
      <path class="st3" d="M130.7,325.7l-42.9,43c-.6-.6-1.2-1.2-1.8-1.8l42.9-43c.1.1.3.3.4.4.1.1.2.3.4.4.3.3.7.7,1,1Z"/>
      <path class="st3" d="M104.9,291l-54.1,27.6c-.4-.7-.8-1.5-1.1-2.2l54.1-27.6c.4.7.8,1.5,1.2,2.2Z"/>
      <path class="st3" d="M91.2,204.5c0,.4-.1.8-.2,1.2,0,.4-.1.8-.2,1.2l-60-9.4c.1-.8.3-1.7.4-2.5l60,9.4Z"/>
      <path class="st3" d="M91.2,250.1l-60,9.6c-.1-.8-.3-1.6-.4-2.5l60-9.6c.1.8.3,1.7.4,2.5Z"/>
      <path class="st3" d="M259.7,423.1c-.8.1-1.6.3-2.5.4l-9.6-60c.8-.1,1.7-.3,2.5-.4l9.6,60Z"/>
      <path class="st3" d="M318.7,403.5c-.7.4-1.5.8-2.2,1.1l-27.6-54.1c.8-.4,1.5-.8,2.2-1.2l27.6,54.1Z"/>
      <path class="st3" d="M368.7,366.5c-.6.6-1.2,1.2-1.8,1.8l-43-42.9c.3-.2.5-.5.8-.8s0,0,.1-.1c.3-.3.6-.6.9-.9l43,42.9Z"/>
      <path class="st3" d="M104.8,163.6c-.4.7-.8,1.5-1.1,2.2l-54.1-27.5c.4-.7.7-1.5,1.1-2.2l54.2,27.5Z"/>
      <path class="st3" d="M404.8,316c-.4.7-.7,1.5-1.1,2.2l-54.2-27.5c.4-.7.8-1.5,1.1-2.2l54.1,27.5Z"/>
      <path class="st3" d="M368.3,87.4l-42.9,43c-.6-.6-1.2-1.2-1.8-1.8l42.9-43c.6.6,1.2,1.2,1.8,1.8Z"/>
      <path class="st3" d="M404.6,137.9l-54.1,27.6h0c-.4-.7-.8-1.5-1.1-2.2l54.1-27.6c.4.7.8,1.5,1.1,2.2Z"/>
      <path class="st3" d="M423.5,197.1l-60,9.6c-.1-.8-.3-1.7-.4-2.5l60-9.6c.1.8.3,1.6.4,2.5Z"/>
      <path class="st3" d="M130.5,128.9c-.6.6-1.2,1.2-1.8,1.8l-43-42.9c.6-.6,1.2-1.2,1.8-1.8l43,42.9Z"/>
      <path class="st3" d="M194.7,233.6l-92.5,14.8c-.1-.8-.3-1.7-.4-2.5l92.6-14.8c0,.9.2,1.7.4,2.5Z"/>
      <path class="st3" d="M213.3,257.2l-42.5,83.6c-.7-.4-1.5-.8-2.2-1.1l42.4-83.6c.7.4,1.5.8,2.3,1.1Z"/>
      <path class="st3" d="M286,339.5s0,0,0,0c-.7.4-1.5.8-2.2,1.1l-42.7-83.5c.8-.3,1.5-.7,2.3-1.2l42.7,83.5Z"/>
      <path class="st3" d="M317.9,315.8h0c-.6.6-1.2,1.2-1.8,1.8h0,0s-66.4-66.2-66.4-66.2c.6-.6,1.2-1.2,1.8-1.8l66.3,66.2h0s0,0,0,0Z"/>
      <path class="st3" d="M340.8,283.5h0c0,.1-.1.3-.2.4-.3.6-.6,1.2-1,1.9l-83.6-42.4c.4-.7.8-1.5,1.1-2.3l83.6,42.5Z"/>
      <path class="st3" d="M352.6,208.4l-92.6,14.8c0-.8-.2-1.7-.4-2.5l92.5-14.8c.1.8.3,1.7.4,2.5Z"/>
      <path class="st3" d="M352.7,245.6h0c0,.4-.1.7-.2,1.1,0,.5-.1.9-.2,1.4l-92.6-14.5c.2-.8.3-1.7.4-2.5l92.6,14.6h0Z"/>
      <path class="st3" d="M165.5,103.8c-.7.4-1.5.8-2.2,1.2l-27.6-54.1c.7-.4,1.5-.8,2.2-1.1l27.6,54.1Z"/>
      <path class="st3" d="M318.3,50.6l-27.5,54.2c-.7-.4-1.5-.8-2.2-1.1h0s27.5-54.1,27.5-54.1c.7.4,1.5.7,2.2,1.1Z"/>
      <path class="st3" d="M206.7,90.8c-.8.1-1.7.3-2.5.4h0s-9.6-60-9.6-60c.8-.1,1.6-.3,2.5-.4l9.6,60Z"/>
      <path class="st3" d="M259.2,31.1l-9.4,60c-.6,0-1.2-.2-1.9-.3-.2,0-.4,0-.6,0h0s9.4-60,9.4-60c.8.1,1.6.3,2.5.4Z"/>
      <path class="st3" d="M423.6,256.7c-.1.8-.3,1.7-.4,2.5l-60-9.4c.1-.8.3-1.7.4-2.5l60,9.4Z"/>
      <path class="st7" d="M288.5,103.6l27.5-54.1c-17.6-8.8-36.7-15.1-56.8-18.4l-9.4,60c13.5,2.2,26.5,6.4,38.7,12.5Z"/>
      <path class="st7" d="M283.5,113.5l-42.5,83.6c-2.3-1.1-4.8-1.9-7.5-2.4l14.5-92.6c12.5,2.1,24.4,6,35.4,11.4Z"/>
      <path class="st7" d="M380.5,75.2h0c.8.9,1.6,1.7,2.5,2.5-.8-.8-1.6-1.7-2.4-2.5Z"/>
      <path class="st7" d="M388.8,84c.4.5.9,1,1.3,1.5-.4-.5-.9-1-1.3-1.5Z"/>
      <path class="st7" d="M349.4,163.3l54.1-27.6c-9.3-17.8-21.2-34.1-35.2-48.2l-42.9,43c9.7,9.8,17.7,20.9,24,32.8Z"/>
      <path class="st7" d="M339.6,168.3l-83.5,42.7c-1.3-2.3-2.8-4.4-4.6-6.3l66.2-66.4c8.7,8.8,16.1,19,21.9,30Z"/>
      <path class="st7" d="M383.9,78.7c.8.9,1.7,1.8,2.5,2.7-.8-.9-1.6-1.8-2.5-2.7Z"/>
      <path class="st7" d="M354,227.2c0,6.3-.5,12.4-1.3,18.4l-92.6-14.6c.3-2.6.3-5.3,0-7.8l92.6-14.8c.9,6.1,1.4,12.4,1.4,18.8Z"/>
      <path class="st7" d="M365,227.2c0,6.8-.5,13.5-1.5,20.2l60,9.4c2.9-19.4,2.9-40.3,0-59.7l-60,9.6c1,6.7,1.5,13.6,1.5,20.5Z"/>
      <path class="st7" d="M441.6,201.7c.1.9.2,1.7.3,2.6,0-.9-.2-1.7-.3-2.6Z"/>
      <path class="st7" d="M443,222c0,1.7,0,3.4,0,5.1,0-1.7,0-3.4,0-5.1Z"/>
      <path class="st7" d="M441.1,197.9c0,.3,0,.6.1.9,0-.3,0-.6-.1-.9Z"/>
      <path class="st7" d="M442.8,216.8c0,1.5.1,3,.2,4.6,0-1.5,0-3-.2-4.6Z"/>
      <path class="st7" d="M442.9,234.8c0,.2,0,.4,0,.6,0-.2,0-.4,0-.6Z"/>
      <path class="st7" d="M442,206.1c.3,3.3.6,6.6.7,10-.2-3.3-.4-6.6-.7-10Z"/>
      <path class="st7" d="M443,227.8c0,1.2,0,2.5,0,3.7,0-1.2,0-2.5,0-3.7Z"/>
      <path class="st7" d="M387.1,372.2c-.6.7-1.2,1.3-1.8,1.9.6-.6,1.2-1.3,1.8-1.9Z"/>
      <path class="st7" d="M382.2,377.4c-.4.4-.9.9-1.3,1.3h0c.4-.4.8-.9,1.3-1.3Z"/>
      <path class="st7" d="M392.7,365.8c-.4.5-.8.9-1.2,1.4.4-.5.8-.9,1.2-1.4Z"/>
      <path class="st7" d="M339.7,285.7c-5.8,11.1-13.1,21.2-21.8,30.1h0,0s-66.3-66.2-66.3-66.2c1.8-1.9,3.3-4.1,4.6-6.3l83.6,42.4Z"/>
      <path class="st7" d="M325.7,323.6l43,42.9c14-14.2,25.8-30.4,35.1-48.3l-54.2-27.5c-6.2,11.9-14.2,23-23.9,32.9Z"/>
      <path class="st7" d="M283.8,340.7c-11,5.5-22.8,9.4-35.4,11.5l-14.8-92.6c2.6-.5,5.1-1.3,7.5-2.4l42.7,83.5Z"/>
      <path class="st7" d="M250.2,363.1l9.6,60c20.1-3.3,39.2-9.6,56.7-18.5l-27.6-54.1c-12.1,6.1-25.1,10.3-38.7,12.6Z"/>
      <path class="st7" d="M104.9,291.1l-54.1,27.6c9.3,17.8,21.2,34.1,35.2,48.2l42.9-43c-9.7-9.8-17.7-20.9-24-32.8Z"/>
      <path class="st7" d="M202.9,249.7l-66.2,66.4c-1.1-1.1-2.1-2.2-3.2-3.4-.5-.6-1.1-1.2-1.6-1.8-1-1.2-2-2.3-3-3.5-.5-.6-1-1.2-1.5-1.9-.6-.7-1.1-1.4-1.7-2.2-.3-.4-.6-.7-.8-1.1-.6-.8-1.1-1.5-1.7-2.3-.4-.6-.9-1.2-1.3-1.8-.2-.3-.4-.5-.5-.8-.7-1-1.4-2.1-2-3.1-.4-.7-.8-1.3-1.2-2-.3-.4-.5-.9-.8-1.3,0-.1-.1-.3-.2-.4-.8-1.5-1.7-2.9-2.4-4.4h0s83.5-42.7,83.5-42.7c1.3,2.3,2.8,4.4,4.6,6.3Z"/>
      <path class="st7" d="M65.6,370.3c-.4-.5-.9-1-1.3-1.5.4.5.9,1,1.3,1.5Z"/>
      <path class="st7" d="M70.4,375.6c-.8-.9-1.7-1.8-2.5-2.7.8.9,1.6,1.8,2.5,2.7Z"/>
      <path class="st7" d="M73.8,379.1h0c-.8-.9-1.6-1.7-2.5-2.5.8.8,1.6,1.7,2.4,2.5Z"/>
      <path class="st7" d="M128.7,130.7l-43-42.9c-14,14.2-25.8,30.4-35.1,48.3l54.2,27.5c6.2-11.9,14.2-23,23.9-32.9Z"/>
      <path class="st7" d="M73.4,75.6c-.4.4-.9.9-1.3,1.4.4-.4.9-.9,1.3-1.3h0Z"/>
      <path class="st7" d="M67.2,82.1c.6-.7,1.2-1.3,1.8-1.9-.6.6-1.2,1.3-1.8,1.9Z"/>
      <path class="st7" d="M202.8,204.7c-1.8,1.9-3.3,4.1-4.6,6.3l-83.6-42.4c5.8-11.1,13.2-21.2,21.8-30.1l66.4,66.2Z"/>
      <path class="st7" d="M61.7,88.5c.4-.5.8-.9,1.2-1.4-.4.5-.8.9-1.2,1.4Z"/>
      <path class="st7" d="M220.8,259.7l-14.5,92.6c-12.5-2.1-24.4-6-35.4-11.4l42.5-83.6c2.3,1.1,4.8,1.9,7.5,2.4Z"/>
      <path class="st7" d="M204.5,363.2l-9.4,60c-20.1-3.3-39.2-9.5-56.8-18.4l27.5-54.1c12.2,6,25.2,10.3,38.7,12.5Z"/>
      <path class="st7" d="M220.7,194.6c-2.6.5-5.1,1.3-7.5,2.4l-42.7-83.5c11-5.5,22.9-9.4,35.4-11.5l14.8,92.5Z"/>
      <path class="st7" d="M204.2,91.2l-9.6-60c-20.1,3.3-39.2,9.6-56.7,18.5l27.6,54.1c12.1-6.1,25.1-10.3,38.7-12.6Z"/>
      <path class="st7" d="M12.3,248.2c-.3-3.3-.6-6.6-.7-10,.2,3.3.4,6.7.7,10Z"/>
      <path class="st7" d="M12.8,252.6c-.1-.9-.2-1.7-.3-2.6,0,.9.2,1.7.3,2.6Z"/>
      <path class="st7" d="M13.3,256.4c0-.3,0-.6-.1-.9,0,.3,0,.6.1.9Z"/>
      <path class="st7" d="M11.3,232.3c0-1.7,0-3.4,0-5.1,0,1.7,0,3.4,0,5.1Z"/>
      <path class="st7" d="M89.3,227.2c0-6.8.5-13.5,1.5-20.2l-60-9.4c-2.9,19.4-2.9,40.3,0,59.7l60-9.6c-1-6.7-1.5-13.6-1.5-20.5Z"/>
      <path class="st7" d="M11.4,219.5c0-.2,0-.4,0-.6,0,.2,0,.4,0,.6Z"/>
      <path class="st7" d="M194.3,231.1l-92.6,14.8c-1.8-12.1-1.8-25.1,0-37.2l92.6,14.6c-.3,2.6-.3,5.3,0,7.8Z"/>
      <path class="st7" d="M11.5,237.6c0-1.5-.1-3.1-.2-4.6,0,1.5,0,3.1.2,4.6Z"/>
      <path class="st7" d="M11.3,226.5c0-1.2,0-2.5,0-3.7,0,1.2,0,2.5,0,3.7Z"/>
      <path class="st4" d="M222,11.3c1.7,0,3.4,0,5.1,0-1.7,0-3.4,0-5.1,0Z"/>
      <path class="st4" d="M197.9,13.2c.3,0,.6,0,.9-.1-.3,0-.6,0-.9.1Z"/>
      <path class="st4" d="M245.6,101.7l-14.6,92.6c-2.6-.3-5.3-.3-7.8,0l-14.8-92.6c12.1-1.8,25.1-1.8,37.2,0Z"/>
      <path class="st4" d="M216.8,11.5c1.5,0,3.1-.1,4.6-.2-1.5,0-3.1,0-4.6.2Z"/>
      <path class="st4" d="M227.8,11.3c1.2,0,2.5,0,3.7,0-1.2,0-2.5,0-3.7,0Z"/>
      <path class="st4" d="M206.1,12.3c3.3-.3,6.6-.6,10-.7-3.3.2-6.7.4-10,.7Z"/>
      <path class="st4" d="M201.7,12.8c.9-.1,1.7-.2,2.6-.3-.9,0-1.7.2-2.6.3Z"/>
      <path class="st4" d="M234.8,11.4c.2,0,.4,0,.6,0-.2,0-.4,0-.6,0Z"/>
      <path class="st4" d="M227.2,89.3c6.8,0,13.5.5,20.2,1.5l9.4-60c-19.4-2.9-40.3-2.9-59.7,0l9.6,60c6.7-1,13.6-1.5,20.5-1.5Z"/>
      <path class="st4" d="M315.8,136.5l-66.2,66.4c-1.9-1.8-4-3.3-6.3-4.6l42.4-83.6c11.1,5.8,21.2,13.2,30.1,21.8Z"/>
      <path class="st4" d="M372.2,67.2c.7.6,1.3,1.2,1.9,1.8-.6-.6-1.3-1.2-1.9-1.8Z"/>
      <path class="st4" d="M323.6,128.7l42.9-43c-14.2-14-30.4-25.8-48.3-35.1l-27.5,54.2c11.9,6.2,23,14.2,32.9,23.9Z"/>
      <path class="st4" d="M365.8,61.7c.5.4.9.8,1.4,1.2-.5-.4-.9-.8-1.4-1.2Z"/>
      <path class="st4" d="M378.8,73.4c-.4-.4-.9-.9-1.4-1.3.4.4.9.9,1.3,1.3h0Z"/>
      <path class="st4" d="M352.3,248.1h0c-2.1,12.5-6,24.4-11.4,35.4l-83.6-42.5c1.1-2.4,1.9-4.8,2.4-7.5l92.6,14.5Z"/>
      <path class="st4" d="M350.7,288.5l54.1,27.5c8.8-17.6,15.1-36.7,18.4-56.8l-60-9.4c-2.2,13.5-6.4,26.5-12.5,38.7Z"/>
      <path class="st4" d="M352.2,205.9l-92.5,14.8c-.5-2.6-1.3-5.1-2.5-7.5l83.5-42.7c5.5,11,9.4,22.9,11.5,35.4Z"/>
      <path class="st4" d="M363.1,204.2l60-9.6c-3.3-20.1-9.6-39.2-18.5-56.7l-54.1,27.6c6.1,12.1,10.3,25.1,12.6,38.7Z"/>
      <path class="st4" d="M88.5,392.7c-.5-.4-.9-.8-1.4-1.2.5.4.9.8,1.4,1.2Z"/>
      <path class="st4" d="M211,256.1l-42.4,83.6c-7.6-4-14.8-8.7-21.4-14.1-3-2.4-5.9-5-8.7-7.8l66.2-66.4c1.9,1.8,4,3.3,6.3,4.6Z"/>
      <path class="st4" d="M163.6,349.6l-27.5,54.2c-17.8-9.2-34.1-21.1-48.3-35l42.9-43c9.9,9.7,20.9,17.7,32.9,23.9Z"/>
      <path class="st4" d="M82.1,387.1c-.7-.6-1.3-1.2-1.9-1.8.6.6,1.3,1.2,1.9,1.8Z"/>
      <path class="st4" d="M75.6,380.9c.4.4.9.9,1.4,1.3-.4-.4-.9-.9-1.3-1.3h0Z"/>
      <path class="st4" d="M316.1,317.6h0c-8.8,8.7-18.9,16.1-30,21.9l-42.7-83.5c2.3-1.3,4.4-2.8,6.3-4.6l66.4,66.2Z"/>
      <path class="st4" d="M379.1,380.5h0c-.8.8-1.7,1.6-2.5,2.4.8-.8,1.7-1.6,2.5-2.4Z"/>
      <path class="st4" d="M375.6,383.9c-.9.8-1.8,1.7-2.7,2.5.9-.8,1.8-1.6,2.7-2.5Z"/>
      <path class="st4" d="M291.1,349.4l27.6,54.1c17.8-9.3,34.1-21.2,48.2-35.2l-43-42.9c-9.8,9.7-20.9,17.7-32.8,24Z"/>
      <path class="st4" d="M370.3,388.8c-.5.4-1,.9-1.5,1.3.5-.4,1-.9,1.5-1.3Z"/>
      <path class="st4" d="M91.2,250.1l-60,9.6c3.3,20.1,9.6,39.2,18.5,56.7l54.1-27.6c-6.1-12.1-10.3-25.1-12.6-38.7Z"/>
      <path class="st4" d="M197.1,241.1l-83.5,42.7c-5.5-11-9.4-22.9-11.5-35.4l92.5-14.8c.5,2.6,1.3,5.1,2.4,7.5Z"/>
      <path class="st4" d="M257.3,423.5c-1.2.2-2.5.4-3.7.5-2.5.3-4.9.6-7.4.8h0c-2.5.2-5,.4-7.5.6-2.5.1-5,.2-7.6.3-1.3,0-2.6,0-3.8,0s-2.8,0-4.2,0c-.9,0-1.8,0-2.6,0-.4,0-.9,0-1.3,0-.5,0-1.1,0-1.6,0-.7,0-1.4,0-2.1-.1-2.1-.1-4.3-.3-6.4-.5-.2,0-.4,0-.6,0-1.2-.1-2.3-.2-3.5-.4-1.2-.1-2.3-.3-3.5-.4-1.2-.2-2.4-.3-3.6-.5l9.4-60c13.3,2,27.4,1.9,40.7,0l9.6,60Z"/>
      <path class="st4" d="M248.2,442c-3.3.3-6.6.6-10,.7,3.3-.2,6.6-.4,10-.7Z"/>
      <path class="st4" d="M256.4,441.1c-.3,0-.6,0-.9.1.3,0,.6,0,.9-.1Z"/>
      <path class="st4" d="M245.9,352.6h0c-.8.1-1.5.2-2.3.3-2.2.3-4.3.5-6.5.7-3.3.3-6.6.4-9.9.4s-9.3-.3-13.9-.8c-1.5-.2-3-.4-4.5-.6l14.6-92.6c2.6.3,5.3.3,7.8,0l14.8,92.6Z"/>
      <path class="st4" d="M252.6,441.6c-.9.1-1.7.2-2.6.3.9,0,1.7-.2,2.6-.3Z"/>
      <path class="st4" d="M237.6,442.8c-1.5,0-3,.1-4.6.2,1.5,0,3,0,4.6-.2Z"/>
      <path class="st4" d="M226.5,443c-1.2,0-2.5,0-3.7,0,1.2,0,2.5,0,3.7,0Z"/>
      <path class="st4" d="M219.5,442.9c-.2,0-.4,0-.6,0,.2,0,.4,0,.6,0Z"/>
      <path class="st4" d="M232.3,443c-1.7,0-3.4,0-5.1,0,1.7,0,3.4,0,5.1,0Z"/>
      <path class="st4" d="M84,65.5c.5-.4,1-.9,1.5-1.3-.5.4-1,.9-1.5,1.3Z"/>
      <path class="st4" d="M78.7,70.4c.9-.8,1.8-1.7,2.7-2.5-.9.8-1.8,1.6-2.7,2.5Z"/>
      <path class="st4" d="M75.2,73.8h0c.8-.8,1.7-1.6,2.5-2.4-.8.8-1.7,1.6-2.5,2.4Z"/>
      <path class="st4" d="M163.3,104.9l-27.6-54.1c-17.8,9.3-34.1,21.2-48.2,35.2l43,42.9c9.8-9.7,20.9-17.7,32.8-24Z"/>
      <path class="st4" d="M211,198.3c-2.3,1.3-4.4,2.8-6.3,4.6l-66.4-66.2c8.8-8.7,19-16.1,30-21.9l42.7,83.5Z"/>
      <path class="st4" d="M103.6,165.8l-54.1-27.5c-8.8,17.6-15.1,36.7-18.4,56.8l60,9.4c2.2-13.5,6.4-26.5,12.5-38.7Z"/>
      <path class="st4" d="M197.1,213.3c-1.1,2.4-1.9,4.8-2.4,7.5l-92.6-14.5c2.1-12.5,6-24.4,11.4-35.4l83.6,42.5Z"/>
      <path class="st6" d="M233,443c-.2,0-.4,0-.6,0,.2,0,.4,0,.6,0Z"/>
      <path class="st6" d="M383,77.7c.3.3.6.7,1,1-.3-.3-.6-.7-1-1Z"/>
      <path class="st6" d="M376.6,383c-.3.3-.7.7-1,1,.3-.3.7-.6,1-1Z"/>
      <path class="st6" d="M87.2,391.5c-1.7-1.4-3.4-2.9-5-4.4,1.7,1.5,3.3,3,5,4.4Z"/>
      <path class="st6" d="M80.2,385.3c-1.1-1-2.2-2.1-3.3-3.1,1.1,1,2.2,2.1,3.3,3.1Z"/>
      <path class="st6" d="M222.8,443c-1.1,0-2.2,0-3.3,0,1.1,0,2.2,0,3.3,0Z"/>
      <path class="st6" d="M374.1,69c1.1,1,2.2,2.1,3.3,3.1-1.1-1-2.2-2.1-3.3-3.1Z"/>
      <path class="st6" d="M367.2,62.8c1.7,1.4,3.4,2.9,5,4.4-1.7-1.5-3.3-3-5-4.4Z"/>
      <path class="st6" d="M372.9,386.4c-.9.8-1.8,1.6-2.6,2.4.9-.8,1.8-1.6,2.6-2.4Z"/>
      <path class="st6" d="M227.2,443s0,0,0,0c-.2,0-.5,0-.7,0,.2,0,.5,0,.7,0Z"/>
      <path class="st6" d="M386.4,81.4c.8.9,1.6,1.7,2.4,2.6-.8-.9-1.6-1.8-2.4-2.6Z"/>
      <path class="st6" d="M227.2,11.3s0,0,0,0c.2,0,.5,0,.7,0-.2,0-.4,0-.7,0Z"/>
      <path class="st6" d="M255.5,441.2c-1,.1-2,.3-3,.4,1-.1,2-.2,3-.4Z"/>
      <path class="st6" d="M441.9,204.3c0,.6.1,1.2.2,1.8,0-.6-.1-1.2-.2-1.8Z"/>
      <path class="st6" d="M441.2,198.8c.1,1,.2,2,.4,2.9-.1-1-.2-2-.4-2.9Z"/>
      <path class="st6" d="M81.4,67.9c.9-.8,1.8-1.6,2.6-2.4-.9.8-1.8,1.6-2.6,2.4Z"/>
      <path class="st6" d="M198.8,13.1c1-.1,2-.2,2.9-.4-1,.1-2,.2-2.9.4Z"/>
      <path class="st6" d="M77.7,71.4c.3-.3.7-.7,1-1-.3.3-.7.6-1,1Z"/>
      <path class="st6" d="M204.4,12.5c.6,0,1.2-.1,1.8-.2-.6,0-1.2.1-1.8.2Z"/>
      <path class="st6" d="M216.1,11.6c.2,0,.4,0,.7,0-.2,0-.4,0-.7,0Z"/>
      <path class="st6" d="M238.2,442.8c-.2,0-.4,0-.7,0,.2,0,.4,0,.7,0Z"/>
      <path class="st6" d="M231.5,11.3c1.1,0,2.2,0,3.3,0-1.1,0-2.2,0-3.3,0Z"/>
      <path class="st6" d="M221.4,11.4c.2,0,.4,0,.6,0-.2,0-.4,0-.6,0Z"/>
      <path class="st6" d="M69.1,80.2c1-1.1,2.1-2.2,3.1-3.3-1,1.1-2.1,2.2-3.1,3.3Z"/>
      <path class="st6" d="M71.4,376.6c-.3-.3-.7-.7-1-1,.3.3.6.7,1,1Z"/>
      <path class="st6" d="M13.1,255.5c-.1-1-.2-2-.4-2.9.1,1,.2,2,.4,2.9Z"/>
      <path class="st6" d="M250,441.8c-.6,0-1.2.1-1.8.2.6,0,1.2-.1,1.8-.2Z"/>
      <path class="st6" d="M67.9,372.9c-.8-.9-1.6-1.8-2.4-2.6.8.9,1.6,1.8,2.4,2.6Z"/>
      <path class="st6" d="M12.5,250c0-.6-.1-1.2-.2-1.8,0,.6.1,1.2.2,1.8Z"/>
      <path class="st6" d="M62.8,87.1c1.4-1.7,2.9-3.4,4.4-5-1.5,1.7-3,3.3-4.4,5Z"/>
      <path class="st6" d="M11.3,227.2s0,0,0,0c0-.2,0-.5,0-.7,0,.2,0,.4,0,.7Z"/>
      <path class="st6" d="M11.3,222.8c0-1.1,0-2.2,0-3.3,0,1.1,0,2.2,0,3.3Z"/>
      <path class="st6" d="M11.4,233c0-.2,0-.4,0-.6,0,.2,0,.4,0,.6Z"/>
      <path class="st6" d="M11.6,238.2c0-.2,0-.4,0-.7,0,.2,0,.4,0,.7Z"/>
      <path class="st6" d="M94.5,397.5c.3.2.5.4.8.6-.4-.3-.9-.7-1.3-1,.2.1.3.3.5.4Z"/>
      <path class="st6" d="M95.3,398.1c.7.5,1.3,1,2,1.5-.2-.2-.4-.3-.7-.5-.4-.3-.9-.7-1.3-1Z"/>
      <path class="st6" d="M100.4,401.9c-.8-.6-1.7-1.2-2.5-1.9.8.6,1.7,1.2,2.5,1.9Z"/>
      <path class="st6" d="M442.8,216.1c0,.2,0,.4,0,.7,0-.2,0-.4,0-.7Z"/>
      <path class="st6" d="M401.7,354.2c-.7.9-1.3,1.8-2.1,2.8-.1.1-.2.3-.3.4-.3.4-.7.9-1,1.3,0,0,.2-.2.2-.3.5-.7,1.1-1.4,1.6-2.1.5-.7,1.1-1.4,1.6-2.2Z"/>
      <path class="st6" d="M391.7,87.4c.1.2.3.3.4.5,0,0-.1-.2-.2-.3,0,0-.1-.2-.2-.2Z"/>
      <path class="st6" d="M361.5,396.1c.8-.7,1.7-1.3,2.5-2-.4.3-.8.7-1.3,1-.6.5-1.2,1-1.9,1.5-.3.2-.5.4-.8.6.5-.4,1-.8,1.5-1.1Z"/>
      <path class="st6" d="M365.7,392.7s0,0,0,0c-.2.2-.4.3-.6.5.2-.1.4-.3.5-.5Z"/>
      <path class="st6" d="M61.7,88.5c-.6.7-1.2,1.5-1.9,2.3,0,0,0,0,0,0,.6-.8,1.3-1.6,1.9-2.3Z"/>
      <path class="st6" d="M238.3,11.6c0,0,.1,0,.2,0-1,0-2,0-3-.1.9,0,1.9,0,2.8.1Z"/>
      <path class="st6" d="M238.5,11.6c0,0,.2,0,.2,0,0,0-.2,0-.3,0h0Z"/>
      <path class="st6" d="M239.2,11.6s0,0,.1,0c-.2,0-.4,0-.6,0,.1,0,.3,0,.4,0Z"/>
      <path class="st6" d="M240.4,11.7c.4,0,.8,0,1.3,0,0,0-.1,0-.2,0-.7,0-1.4,0-2.1-.1.4,0,.7,0,1.1,0Z"/>
      <path class="st6" d="M247.3,12.2c1.1,0,2.1.2,3.2.3-2.9-.3-5.9-.6-8.8-.8.2,0,.3,0,.5,0,.5,0,.9,0,1.4,0,0,0,0,0,.1,0,1.2,0,2.4.2,3.6.3Z"/>
      <path class="st6" d="M357.1,54.7c.4.3.8.6,1.2.9-.2-.2-.4-.3-.7-.5-.2-.1-.4-.3-.6-.4Z"/>
      <path class="st6" d="M361.1,57.9c-.9-.7-1.9-1.5-2.8-2.2.7.5,1.4,1,2,1.6.3.2.5.4.8.6Z"/>
      <path class="st6" d="M87.2,62.8c.2-.2.5-.4.7-.6-.2.1-.3.3-.5.4,0,0-.2.1-.2.2Z"/>
      <path class="st6" d="M88.8,61.4c.3-.3.6-.5.9-.8,0,0-.2.1-.3.2-.2.2-.5.4-.7.6Z"/>
      <path class="st6" d="M93.5,57.7c.7-.5,1.4-1.1,2.1-1.6-.4.3-.8.6-1.2.9-.1,0-.2.2-.3.2-.3.3-.7.5-1,.8-.9.7-1.8,1.4-2.7,2.2.9-.7,1.7-1.4,2.6-2.1.2-.1.4-.3.6-.4Z"/>
      <path class="st6" d="M191.9,14.2c-1.7.3-3.3.6-5,.9,1.7-.3,3.3-.6,5-.9Z"/>
      <path class="st6" d="M96.3,55.5c0,0,.1,0,.2-.1-.3.2-.6.5-.9.7.2-.2.5-.4.7-.6Z"/>
      <path class="st6" d="M186.5,15.1c-1.1.2-2.1.4-3.2.6.2,0,.4,0,.5-.1.9-.2,1.8-.4,2.7-.5Z"/>
      <path class="st6" d="M391.5,367.2c-1.4,1.7-2.9,3.4-4.4,5,1.5-1.7,3-3.3,4.4-5Z"/>
      <path class="st6" d="M385.3,374.1c-1,1.1-2.1,2.2-3.1,3.3,1-1.1,2.1-2.2,3.1-3.3Z"/>
      <path class="st6" d="M443,231.5c0,1.1,0,2.2,0,3.3,0-1.1,0-2.2,0-3.3Z"/>
      <path class="st6" d="M443.1,227.2s0,0,0,0c0,.2,0,.5,0,.7,0-.2,0-.5,0-.7Z"/>
      <path class="st6" d="M443,221.3c0,.2,0,.4,0,.6,0-.2,0-.4,0-.6Z"/>
      <path class="st6" d="M323.8,34.1l-7.8,15.3c-17.6-8.8-36.7-15.1-56.8-18.4l2.7-17c21.5,3.5,42.4,10.3,61.9,20Z"/>
      <path class="st6" d="M418.8,127.8l-15.3,7.8c-9.3-17.8-21.2-34.1-35.2-48.2l12.2-12.2c.8.8,1.6,1.7,2.5,2.5.1.1.3.3.4.5.5.5.9,1,1.4,1.4.4.5.9,1,1.3,1.4,0,0,.2.2.3.3.8.9,1.6,1.8,2.4,2.6,0,0,0,0,0,0,.8.9,1.7,1.9,2.5,2.9,0,0,.1.1.2.2,0,0,0,0,0,0,0,0,0,0,0,0,0,0,.1.2.2.2l.4.5c.6.7,1.2,1.4,1.8,2.1,1,1.2,2,2.4,2.9,3.7,0,0,0,0,0,0,.6.7,1.1,1.4,1.6,2.1.5.7,1,1.4,1.6,2.1.5.6.9,1.3,1.4,1.9.7.9,1.4,1.9,2.1,2.9.6.9,1.2,1.8,1.8,2.7.5.8,1,1.6,1.6,2.3.5.8,1,1.5,1.5,2.3.3.5.7,1,1,1.5.4.6.8,1.3,1.2,1.9.7,1.2,1.4,2.4,2.1,3.6,0,0,0,0,0,0,0,0,0,0,0,0,.6,1,1.2,2.1,1.8,3.1.7,1.2,1.3,2.4,2,3.6.3.6.7,1.2,1,1.8.3.6.6,1.2,1,1.8Z"/>
      <path class="st6" d="M443,230.8c0,.2,0,.5,0,.7,0,1.1,0,2.2,0,3.3,0,.2,0,.4,0,.6,0,1.1,0,2.2-.2,3.3,0,.1,0,.3,0,.4,0,1-.1,2.1-.2,3.1,0,0,0,.1,0,.2,0,.5,0,.9-.1,1.4,0,1.2-.2,2.4-.3,3.6-.1,1.2-.2,2.4-.4,3.6,0,.3,0,.5,0,.8-.1,1.2-.3,2.3-.4,3.5h0c-.2,1.4-.4,2.8-.6,4.1l-17-2.7c2.9-19.4,2.9-40.3,0-59.7l17-2.7c.2,1.2.3,2.4.5,3.6,0,.3,0,.6.1.9.1,1,.3,2,.4,3,0,.7.2,1.5.2,2.3.1.9.2,1.9.3,2.8,0,.7.1,1.3.2,2,0,.3,0,.5,0,.8,0,.5,0,1,.1,1.5,0,.3,0,.7,0,1,0,.2,0,.3,0,.5,0,0,0,.2,0,.3,0,.2,0,.4,0,.5,0,.9.1,1.8.1,2.7,0,.8,0,1.6.1,2.4,0,.9,0,1.9,0,2.8,0,.5,0,1,0,1.5,0,2.7,0,5.3,0,8Z"/>
      <path class="st6" d="M419.1,326c-.5,1.1-1.1,2.1-1.7,3.2-.7,1.3-1.4,2.5-2.1,3.8-.5.9-1,1.8-1.5,2.7-.5.8-.9,1.6-1.4,2.4-.8,1.3-1.6,2.6-2.4,3.9-.6.9-1.2,1.9-1.8,2.8-2,3.1-4.1,6.2-6.3,9.2,0,0-.1.2-.2.2-.3.4-.5.7-.8,1.1-.3.4-.5.7-.8,1.1,0,0-.1.2-.2.3l-.2.3c-.1.1-.2.3-.3.4-.2.2-.3.4-.5.7,0,.1-.2.2-.3.3,0,.1-.1.2-.2.3-.2.2-.4.5-.5.7-.4.5-.9,1.1-1.3,1.7-.6.8-1.2,1.6-1.9,2.3-1.5,1.9-3.1,3.7-4.7,5.5-.7.8-1.4,1.6-2.1,2.4-.5.6-1.1,1.2-1.6,1.7-.3.3-.6.6-.9,1-1,1.1-2.1,2.2-3.1,3.3-.2.2-.4.4-.6.7-.2.2-.4.4-.7.7l-12.2-12.2c14-14.2,25.8-30.4,35.1-48.3l15.4,7.8Z"/>
      <path class="st6" d="M324.3,419.9c-19.9,10.1-40.8,16.8-61.8,20.2l-2.7-17c20.1-3.3,39.2-9.6,56.7-18.5l7.8,15.3Z"/>
      <path class="st6" d="M86,366.9l-12.2,12.2c-.8-.8-1.6-1.7-2.5-2.5-.1-.1-.3-.3-.4-.5-.6-.6-1.1-1.2-1.7-1.8-.4-.4-.7-.8-1.1-1.2,0,0-.1-.2-.2-.2-.8-.9-1.6-1.8-2.4-2.7-.8-.9-1.7-1.9-2.5-2.9,0,0-.1-.1-.2-.2,0,0,0,0,0,0-.1-.1-.2-.3-.4-.4,0,0,0,0-.1-.2-.6-.7-1.2-1.4-1.8-2.1,0,0-.2-.2-.2-.3-.7-.8-1.3-1.6-2-2.5-.8-.9-1.5-1.9-2.2-2.9-.5-.7-1.1-1.4-1.6-2.1-1.3-1.7-2.6-3.5-3.8-5.2-.4-.6-.8-1.1-1.2-1.7-.4-.6-.9-1.3-1.3-1.9,0-.1-.2-.2-.2-.4,0-.1-.1-.2-.2-.3-.4-.6-.9-1.3-1.3-1.9,0-.1-.2-.3-.3-.5-.3-.4-.5-.9-.8-1.3-.2-.3-.3-.5-.5-.8-.4-.6-.8-1.3-1.2-1.9-.7-1.2-1.5-2.4-2.2-3.6,0,0,0,0,0,0-.6-1-1.2-2.1-1.8-3.1-.7-1.2-1.3-2.4-2-3.6-.3-.6-.7-1.2-1-1.8-.3-.6-.6-1.2-1-1.8l15.3-7.8c9.3,17.8,21.2,34.1,35.2,48.2Z"/>
      <path class="st6" d="M85.7,87.8c-14,14.2-25.8,30.4-35,48.3l-15.4-7.8c.4-.9.9-1.8,1.4-2.6.4-.8.8-1.6,1.3-2.4,0-.2.2-.4.3-.5.4-.8.9-1.5,1.3-2.3.6-1.1,1.3-2.3,2-3.4.5-.9,1.1-1.8,1.6-2.7,0-.1.2-.3.2-.4.6-1,1.2-2,1.8-2.9.8-1.3,1.6-2.5,2.5-3.8.8-1.1,1.5-2.3,2.3-3.4.8-1.1,1.6-2.2,2.4-3.3.9-1.3,1.9-2.6,2.9-3.9.7-.9,1.4-1.8,2.1-2.7.8-1.1,1.7-2.1,2.6-3.2.8-1,1.7-2,2.5-3.1t0,0c.9-1.1,1.8-2.1,2.7-3.2.9-1,1.8-2,2.7-3,.9-1,1.8-2,2.8-3,.1-.1.2-.3.4-.4,0,0,.2-.2.3-.3.3-.3.6-.6.9-.9.4-.4.9-.9,1.3-1.3l12.2,12.2Z"/>
      <path class="st6" d="M195.1,423.2l-2.7,17c-21.5-3.5-42.4-10.3-61.9-20l7.8-15.3c17.6,8.8,36.7,15.1,56.8,18.4Z"/>
      <path class="st6" d="M194.6,31.2c-20.1,3.3-39.2,9.6-56.7,18.5l-7.8-15.3c1.2-.6,2.5-1.2,3.8-1.8,2.8-1.4,5.6-2.6,8.5-3.9.8-.4,1.7-.7,2.5-1.1.4-.2.8-.3,1.1-.5.8-.3,1.6-.7,2.5-1,.5-.2.9-.4,1.4-.5.7-.3,1.4-.5,2.1-.8.7-.3,1.4-.5,2.1-.8.3-.1.7-.2,1-.4,1-.4,2.1-.7,3.1-1.1,1.2-.4,2.4-.8,3.6-1.2,1-.3,2-.6,3-.9.8-.2,1.7-.5,2.5-.7,2.9-.9,5.9-1.6,8.8-2.4,1.2-.3,2.4-.6,3.6-.8,1.2-.3,2.4-.5,3.6-.8.2,0,.4,0,.5-.1.9-.2,1.8-.4,2.7-.5,1.8-.4,3.6-.7,5.4-1l2.7,17Z"/>
      <path class="st6" d="M30.8,257.2l-17,2.7c-.4-2.5-.7-4.9-1-7.4,0-.2,0-.5,0-.7,0-.2,0-.4,0-.6,0-.4,0-.9-.1-1.3,0-.6-.1-1.2-.2-1.8,0-.2,0-.5,0-.7,0-1-.2-2-.3-3,0-.4,0-.8,0-1.2,0-.5,0-1.1-.1-1.6,0-.5,0-1.1,0-1.6t0,0h0c0-.2,0-.4,0-.6,0-.6,0-1.1,0-1.7,0-.8,0-1.5,0-2.3,0-1,0-2,0-2.9,0,0,0-.1,0-.2v-1.4c0-1.1,0-2.2,0-3.3v-.3c0-.4,0-.8,0-1.2,0-.4,0-.8,0-1.2,0-.9,0-1.8,0-2.8,0-1,0-2,0-3.1,0-1.1,0-2.2.2-3.3,0-.1,0-.3,0-.4,0-1,.1-1.9.2-2.9,0,0,0-.2,0-.2,0-.6,0-1.2.1-1.8.2-2.6.4-5.1.7-7.7,0-.1,0-.2,0-.3,0-.1,0-.3,0-.4,0-.8.2-1.7.3-2.6,0-.1,0-.3,0-.5,0-.6.1-1.2.2-1.8,0-.7.2-1.4.3-2.1l17,2.7c-2.9,19.4-2.9,40.3,0,59.7Z"/>
      <path class="st8" d="M259.4,13.7l-2.7,17c-19.4-2.9-40.3-2.9-59.7,0l-2.7-17c.8-.1,1.5-.2,2.3-.3.6,0,1.2-.2,1.8-.2.4,0,.8,0,1.2-.2.7,0,1.4-.2,2.2-.3,0,0,.1,0,.2,0,.6,0,1.3-.1,2-.2.9-.1,1.8-.2,2.7-.3,1.2-.1,2.4-.2,3.5-.3.3,0,.6,0,.9,0,1,0,2.1-.1,3.1-.2,0,0,.1,0,.2,0,.2,0,.3,0,.5,0,.6,0,1.2,0,1.8,0,.8,0,1.5,0,2.3,0,1,0,2,0,2.9,0,0,0,.1,0,.2,0,.5,0,1,0,1.4,0,1.1,0,2.1,0,3.2,0s.7,0,1,0c1.2,0,2.5,0,3.7,0h.2c1,0,2,0,3.1,0,.2,0,.4,0,.6,0,.9,0,1.9,0,2.8.1,0,0,.1,0,.2,0h0c.2,0,.5,0,.7,0,0,0,0,0,.1,0,.4,0,.7,0,1.1,0,.4,0,.7,0,1.1,0,0,0,.1,0,.2,0,.2,0,.3,0,.5,0,.5,0,.9,0,1.4,0,0,0,0,0,.1,0,1.2,0,2.4.2,3.6.3,1.1,0,2.1.2,3.2.3.7,0,1.3.1,2,.2,0,0,0,0,.1,0,.6,0,1.2.1,1.8.2,0,0,0,0,.1,0,.6,0,1.3.2,1.9.3,1,.1,2,.3,3,.4Z"/>
      <path class="st8" d="M378.7,73.4l-12.2,12.2c-14.2-14-30.4-25.8-48.3-35l7.8-15.4c1,.5,2,1.1,3.1,1.6.6.3,1.2.6,1.8,1,1,.5,2,1.1,3,1.7.9.5,1.9,1.1,2.8,1.6.8.5,1.7,1,2.5,1.5.7.4,1.3.8,2,1.2,2,1.2,3.9,2.5,5.9,3.8,1.1.8,2.3,1.5,3.4,2.3,1.1.8,2.2,1.6,3.3,2.4,0,0,.1,0,.2.1.8.6,1.7,1.2,2.5,1.9.2.1.4.3.6.4.2.1.4.3.6.4.2.2.4.3.7.5.3.3.7.5,1,.8.3.3.7.5,1,.8,0,0,0,0,0,0,1,.8,2,1.6,3,2.4.8.7,1.7,1.4,2.5,2.1.4.3.8.7,1.2,1,.8.7,1.6,1.4,2.5,2.1.2.2.5.4.7.6.4.4.8.7,1.2,1.1.4.3.8.7,1.2,1.1.5.4.9.8,1.4,1.3,1.1,1,2.1,2,3.2,3,.3.2.5.5.8.8.2.2.4.4.7.6Z"/>
      <path class="st8" d="M440.2,261.9c-3.5,21.5-10.3,42.4-20,61.9l-15.3-7.8c8.8-17.6,15.1-36.7,18.4-56.8l17,2.7Z"/>
      <path class="st8" d="M440.2,191.9l-17,2.7c-3.3-20.1-9.6-39.2-18.5-56.7l15.3-7.8c10.1,19.9,16.8,40.8,20.2,61.9Z"/>
      <path class="st8" d="M136.1,403.7l-7.8,15.4c-1-.5-2-1.1-3.1-1.6-.6-.3-1.2-.6-1.8-1-1.4-.7-2.8-1.5-4.1-2.3-.7-.4-1.3-.8-2-1.2-.7-.4-1.3-.8-2-1.2-.7-.4-1.4-.9-2.2-1.3-2-1.2-3.9-2.5-5.9-3.8-1.1-.8-2.3-1.5-3.4-2.3-1.1-.8-2.2-1.6-3.3-2.4,0,0-.1,0-.2-.1-.8-.6-1.7-1.2-2.5-1.9-.2-.1-.4-.3-.6-.4-.2-.2-.4-.3-.7-.5-.7-.5-1.4-1-2.1-1.6-.2-.1-.3-.3-.5-.4-.3-.2-.5-.4-.8-.6-.7-.5-1.3-1-2-1.6-.1,0-.2-.2-.4-.3,0,0,0,0,0,0-.8-.6-1.5-1.3-2.3-1.9-.5-.4-.9-.8-1.4-1.2-.8-.7-1.6-1.4-2.5-2.1-.2-.2-.5-.4-.7-.6-.7-.7-1.5-1.3-2.2-2,0,0-.2-.1-.2-.2-1-.9-2-1.8-3-2.8-.5-.5-1.1-1-1.6-1.6-.3-.2-.5-.5-.8-.7,0,0,0,0,0,0-.2-.1-.3-.3-.5-.5l12.2-12.2c14.2,14,30.4,25.8,48.3,35Z"/>
      <path class="st8" d="M379.1,380.5c-.5.5-1,1-1.5,1.5-.5.5-1.1,1.1-1.6,1.6-.5.5-1.1,1-1.6,1.5-.5.4-1,.9-1.4,1.3-.1.1-.2.2-.4.4-.2.2-.4.3-.6.5-.2.2-.5.5-.8.7-.2.2-.4.3-.5.5-.3.3-.7.6-1,.9-.3.2-.5.5-.8.7-.3.2-.5.4-.8.7,0,0,0,0,0,0-.4.3-.8.7-1.2,1-.1,0-.2.2-.3.3,0,0-.2.1-.3.2-.1.1-.3.2-.4.4-.2.2-.4.3-.5.5-.4.3-.8.7-1.2,1-.4.3-.8.7-1.3,1-.4.3-.8.6-1.2.9-.2.2-.4.4-.7.5-.3.2-.5.4-.8.6-.1,0-.2.2-.3.2-.5.4-1,.8-1.5,1.2-3.2,2.4-6.4,4.7-9.7,7-.8.5-1.5,1-2.3,1.5-3.1,2-6.2,4-9.4,5.9,0,0,0,0,0,0-1,.6-2.1,1.2-3.1,1.8-1.2.7-2.4,1.3-3.6,2-.6.3-1.2.7-1.8,1-.6.3-1.2.6-1.8,1l-7.8-15.3c17.8-9.3,34.1-21.2,48.2-35.2l12.2,12.2Z"/>
      <path class="st8" d="M49.7,316.5l-15.3,7.8c-10.1-19.9-16.8-40.8-20.2-61.9l17-2.7c3.3,20.1,9.6,39.2,18.5,56.7Z"/>
      <path class="st8" d="M260,440.6c-1.2.2-2.4.3-3.6.5-.3,0-.6,0-.9.1-1,.1-2,.2-2.9.4-.9,0-1.7.2-2.6.3-.6,0-1.2.1-1.8.2-3.3.3-6.6.6-10,.7-.2,0-.4,0-.7,0-1.5,0-3,.1-4.6.2-.2,0-.4,0-.6,0-1.7,0-3.4,0-5.1,0s-.5,0-.7,0c-1.2,0-2.5,0-3.7,0-1.1,0-2.2,0-3.3,0-.2,0-.4,0-.6,0-1.1,0-2.2,0-3.3-.2-6.9-.4-13.8-1.1-20.7-2.1l2.7-17c1.2.2,2.4.3,3.6.5,2.3.3,4.7.6,7,.8.2,0,.4,0,.6,0,2.1.2,4.3.4,6.4.5.7,0,1.4,0,2.1.1.5,0,1.1,0,1.6,0,.4,0,.9,0,1.3,0,.8,0,1.7,0,2.5,0,1.5,0,2.9,0,4.4,0s2.6,0,3.8,0c2.5,0,5.1-.1,7.6-.3,2.5-.1,5-.3,7.5-.6h0c2.5-.2,5-.5,7.4-.8,1.2-.2,2.5-.3,3.7-.5l2.7,17Z"/>
      <path class="st8" d="M135.6,50.8c-17.8,9.3-34.1,21.2-48.2,35.2l-12.2-12.2c.4-.4.8-.8,1.3-1.2.5-.5,1.1-1.1,1.7-1.6,0,0,0,0,.1-.1.5-.5,1-1,1.6-1.5.5-.5,1.1-1,1.6-1.5.9-.8,1.8-1.6,2.7-2.4.9-.8,1.8-1.6,2.7-2.4.1,0,.2-.2.3-.3,0,0,.2-.1.2-.2.2-.2.5-.4.7-.6.2-.2.4-.4.7-.6.2-.1.3-.3.5-.4,0,0,.1,0,.2-.1.3-.2.5-.4.8-.7,0,0,0,0,0,0,.9-.7,1.7-1.4,2.6-2.1.2-.1.4-.3.6-.4.3-.2.6-.4.9-.7.3-.2.6-.5,1-.7.3-.2.6-.5,1-.7,1.6-1.2,3.1-2.4,4.7-3.5,1.5-1.1,3.1-2.2,4.7-3.3.8-.5,1.5-1,2.3-1.5,3.1-2,6.2-4,9.4-5.9,0,0,0,0,0,0,1-.6,2.1-1.2,3.1-1.8,1.2-.7,2.4-1.3,3.6-2,1.2-.7,2.4-1.3,3.6-1.9l7.8,15.3Z"/>
      <path class="st8" d="M49.5,138.3c-8.8,17.6-15.1,36.7-18.4,56.8l-17-2.7c3.5-21.5,10.3-42.4,20-61.9l15.3,7.8Z"/>
      <path class="st6" d="M317.9,315.8h0c-.6.6-1.2,1.2-1.8,1.8h0,0c.6-.6,1.2-1.2,1.8-1.8h0Z"/>
      <polygon class="st6" points="325.4 130.4 317.6 138.3 317.6 138.2 325.4 130.4"/>
      <path class="st6" d="M247.3,90.7c.2,0,.4,0,.6,0-.2,0-.4,0-.6,0h0Z"/>
      <polygon class="st6" points="249.8 91.1 248.1 102 248.1 102 249.8 91.1"/>
      <path class="st6" d="M352.6,208.4l10.9-1.7c-.1-.8-.3-1.7-.4-2.5l-10.9,1.7c.1.8.3,1.7.4,2.5Z"/>
      <path class="st6" d="M350.6,165.5h0c-.4-.7-.8-1.5-1.1-2.2.4.7.8,1.5,1.2,2.2Z"/>
      <path class="st6" d="M352.7,245.6c0,.3-.1.7-.2,1,0-.3.1-.7.2-1h0Z"/>
      <polygon class="st6" points="170.6 113.6 170.6 113.6 165.5 103.8 170.6 113.6"/>
      <path class="st6" d="M102.1,206.2c-.1.8-.3,1.7-.4,2.5l-10.9-1.7c.1-.8.2-1.7.4-2.5l10.9,1.7Z"/>
      <path class="st6" d="M288.5,103.6l-5,9.9h0c-.7-.3-1.4-.7-2.1-1,0,0,0,0,0,0-1.4-.7-2.8-1.3-4.2-1.9-7.8-3.3-16-5.9-24.5-7.7-1.5-.3-3.1-.6-4.6-.9h0,0s1.7-10.9,1.7-10.9c13.5,2.2,26.5,6.4,38.7,12.5Z"/>
      <path class="st6" d="M349.4,163.3l-9.8,5h0c-1.1-2.1-2.2-4.1-3.4-6.1-.4-.7-.8-1.3-1.2-2-.8-1.3-1.7-2.6-2.5-3.9-1-1.4-1.9-2.8-3-4.2-.3-.4-.6-.9-1-1.3-.1-.1-.2-.3-.3-.4-.4-.5-.8-1-1.2-1.6-.5-.6-1-1.2-1.5-1.8-.6-.7-1.2-1.5-1.9-2.2-.6-.7-1.3-1.5-1.9-2.2-1.3-1.4-2.6-2.9-4-4.2h0s7.8-7.8,7.8-7.8c9.7,9.9,17.7,20.9,24,32.8Z"/>
      <path class="st6" d="M364.9,232.4c0,2.5-.3,5-.5,7.5-.2,2.5-.5,5-.9,7.5l-10.9-1.7h0,0c.2-1.4.4-2.9.5-4.3,0-.2,0-.3,0-.5.1-1.4.3-2.8.4-4.2.2-3.1.3-6.3.3-9.5,0-6.4-.5-12.6-1.4-18.8l10.9-1.7c.2,1.7.5,3.4.7,5.1.2,1.7.3,3.4.5,5.1.4,5.2.5,10.4.3,15.5Z"/>
      <path class="st6" d="M349.6,290.7c-6.2,11.9-14.2,23-23.9,32.9l-7.8-7.8h0s0,0,0,0h0c1.6-1.7,3.2-3.4,4.7-5.1t0,0c.7-.8,1.3-1.5,2-2.3.3-.4.6-.7.9-1.1.8-1,1.6-2,2.4-3,.5-.6,1-1.3,1.4-1.9.2-.2.4-.5.6-.8.7-.9,1.3-1.9,2-2.8.7-1,1.3-1.9,1.9-2.9.2-.3.4-.6.6-.9.4-.6.8-1.2,1.2-1.9.2-.4.4-.7.7-1.1,0,0,0,0,0-.1.5-.9,1-1.8,1.6-2.7,0,0,0-.1.1-.2.6-1.1,1.2-2.1,1.7-3.2l9.9,5Z"/>
      <path class="st6" d="M288.8,350.6c-12.1,6.1-25.2,10.3-38.7,12.6l-1.7-10.9h0c.1,0,.3,0,.4,0,1.3-.2,2.5-.4,3.8-.7.3,0,.6-.1,1-.2,0,0,.2,0,.3,0,1.2-.3,2.5-.5,3.7-.8,1.3-.3,2.7-.7,4-1.1,1.9-.5,3.7-1.1,5.6-1.7.2,0,.4-.1.6-.2.7-.2,1.4-.5,2.1-.7.6-.2,1.3-.4,1.9-.7.5-.2,1-.4,1.6-.6,1.8-.7,3.6-1.4,5.4-2.2.7-.3,1.3-.6,2-.9,1.1-.5,2.1-1,3.2-1.5l5,9.9Z"/>
      <path class="st6" d="M136.7,316.1h0s-7.8,7.8-7.8,7.8c-9.7-9.9-17.7-20.9-24-32.8l9.8-5c.8,1.5,1.6,3,2.4,4.4,0,.1.1.3.2.4.3.4.5.9.8,1.3.4.7.8,1.3,1.2,2,.7,1.1,1.3,2.1,2,3.1.2.3.3.5.5.8.4.6.8,1.2,1.3,1.8.5.8,1.1,1.6,1.7,2.3.3.4.6.8.8,1.1.5.7,1.1,1.4,1.7,2.2.5.6,1,1.2,1.5,1.9,1,1.2,2,2.4,3,3.5.5.6,1,1.2,1.6,1.8,1,1.1,2.1,2.3,3.2,3.4Z"/>
      <path class="st6" d="M136.5,138.5c-8.7,8.9-16.1,19-21.8,30.1l-9.9-5c6.2-11.9,14.2-23,23.9-32.9l7.8,7.8Z"/>
      <path class="st6" d="M206.2,352.3l-1.7,10.9c-13.5-2.2-26.5-6.4-38.7-12.5l5-9.9c11,5.5,22.9,9.4,35.4,11.4Z"/>
      <path class="st6" d="M205.9,102.1c-12.5,2.1-24.4,6-35.4,11.5h0s-5-9.9-5-9.9c12.1-6.1,25.2-10.3,38.7-12.6l1.7,10.9Z"/>
      <path class="st6" d="M101.7,245.9l-10.9,1.7c-1.2-8.4-1.7-17-1.4-25.6,0-2.5.2-5,.5-7.6.2-2.5.5-5,.9-7.5h0s10.9,1.7,10.9,1.7c-.1.7-.2,1.5-.3,2.3-.2,1.4-.3,2.9-.5,4.3-.4,3.9-.5,7.8-.5,11.8,0,3.2.1,6.4.3,9.5.2,2.3.4,4.7.7,7,0,.8.2,1.5.3,2.3Z"/>
      <path class="st8" d="M247.3,90.8l-.2,1.5-1.5,9.4c-.7-.1-1.5-.2-2.3-.3-1.5-.2-3-.4-4.5-.5-.8,0-1.5-.1-2.3-.2-3.1-.2-6.2-.3-9.3-.3-2.4,0-4.7,0-7.1.2-1,0-2,.1-2.9.2-.9,0-1.7.1-2.6.2-.3,0-.5,0-.8,0-.6,0-1.2.1-1.9.2-.3,0-.5,0-.8,0-.9.1-1.8.2-2.7.4l-1.7-10.9c13.3-2,27.3-2,40.7,0Z"/>
      <path class="st8" d="M323.6,128.7l-7.8,7.8c-8.9-8.7-19-16.1-30.1-21.8l5-9.9c11.9,6.2,23,14.2,32.9,23.9Z"/>
      <path class="st8" d="M363.2,249.8c-2.2,13.5-6.4,26.5-12.5,38.7l-9.9-5h0c5.5-11,9.4-22.9,11.4-35.4l10.9,1.7Z"/>
      <path class="st8" d="M363.1,204.2l-10.9,1.7c-2.1-12.5-6-24.4-11.5-35.4l6.5-3.3,3.3-1.7c6.1,12.2,10.3,25.2,12.6,38.7Z"/>
      <path class="st8" d="M168.6,339.7l-5,9.9c-11.9-6.2-23-14.2-32.9-23.9l7.8-7.8c1.4,1.4,2.8,2.7,4.3,4,.7.7,1.5,1.3,2.2,1.9.7.6,1.5,1.3,2.2,1.9h0c.8.7,1.7,1.3,2.5,2,.8.7,1.7,1.3,2.6,1.9,1.4,1,2.8,2,4.3,3,.1.1.3.2.5.3.3.2.6.4.9.6,0,0,.2.1.3.2.7.4,1.3.9,2,1.3.9.6,1.8,1.1,2.7,1.6.1,0,.3.1.4.2.6.4,1.3.8,2,1.1.3.1.5.3.8.5.8.4,1.7.9,2.5,1.3Z"/>
      <path class="st8" d="M323.9,325.4c-9.8,9.7-20.9,17.7-32.8,24l-5-9.8s0,0,0,0c11.1-5.8,21.2-13.2,30-21.9h0s7.8,7.8,7.8,7.8Z"/>
      <path class="st8" d="M113.6,283.8l-9.9,5c-6.1-12.2-10.3-25.2-12.6-38.7l10.9-1.7c2.1,12.5,6,24.4,11.5,35.4Z"/>
      <path class="st8" d="M247.7,363.5c-13.3,2-27.3,2-40.7,0l1.7-10.9c1.5.2,3,.4,4.5.6,4.6.5,9.2.8,13.9.8s6.7-.1,9.9-.4c2.2-.2,4.3-.4,6.5-.7.8,0,1.5-.2,2.3-.3l1.7,10.9Z"/>
      <path class="st8" d="M168.3,114.8c-11.1,5.8-21.2,13.2-30,21.9l-7.8-7.8c9.8-9.7,20.9-17.7,32.8-24l5,9.8Z"/>
      <path class="st8" d="M113.5,170.8c-.3.7-.7,1.4-1,2.1-.7,1.4-1.3,2.8-1.9,4.2-3.4,7.8-5.9,16-7.7,24.5-.3,1.5-.6,3.1-.9,4.7l-10.9-1.7c2.2-13.5,6.4-26.5,12.5-38.7l9.9,5Z"/>
      <path class="st6" d="M256.4,223.8c-5.4-38.4-61.9-31.9-58.4,6.7,5.4,38.4,61.9,31.9,58.4-6.7ZM244.8,228.6c-.5,6.4-4.8,12.3-10.7,14.8-8.6,3.9-19.6-.6-23.1-9.4-8.7-21.5,23.1-35,32.5-13.7,1.1,2.6,1.6,5.5,1.3,8.4Z"/>
      <path class="st8" d="M241.1,227.2c-.4,18.9-28.6,18-27.8-.9,1.4-17.7,27.6-16.8,27.8.9Z"/>
    </g>
    <path class="st1" d="M223.3,395.9c1-.9,2.4-1.4,4.2-1.4,1.2,0,2.2.2,3,.6.8.4,1.5.9,1.9,1.6.4.7.6,1.5.6,2.3,0,1-.2,1.9-.7,2.5-.5.6-1,1-1.7,1.2h0c1.8.8,2.7,2,2.7,3.8,0,1-.2,1.8-.7,2.5-.4.7-1.1,1.3-1.9,1.7-.8.4-1.8.6-3,.6-1.9,0-3.5-.5-4.6-1.4-1.1-.9-1.7-2.4-1.7-4.4h4.8c0,.5,0,.9.2,1.2.2.3.5.4,1,.4.3,0,.5-.1.7-.3.2-.2.3-.5.3-.8,0-.4-.1-.7-.4-1-.3-.2-.7-.3-1.4-.3h-.8s0-4,0-4h.8c1,0,1.5-.3,1.5-1.2,0-.4,0-.7-.2-.8-.2-.2-.4-.3-.6-.3-.6,0-.8.5-.8,1.4h-4.8c0-1.8.6-3.1,1.6-4.1Z"/>
    <g>
      <path class="st4" d="M54.8,218.9h4.7s0,7.6,0,7.6h-16.4s0-5.2,0-5.2h11.7s0-2.4,0-2.4Z"/>
      <path class="st4" d="M54.8,227.8h4.7s0,7.6,0,7.6h-16.4s0-5.2,0-5.2h11.7s0-2.4,0-2.4Z"/>
    </g>
    <g>
      <path class="st1" d="M66.8,162.8l4.4,1.4-2.4,7.2-15.6-5.1,1.6-5,11.2,3.6.7-2.3Z"/>
      <path class="st1" d="M55,169.3l3.9,1.3,7,9.3-1.7,5.1-8.9-2.9-.5,1.5-4.1-1.3.5-1.5-2.3-.8,1.6-4.8,2.3.8,2.2-6.7ZM60.3,178.8l-2.8-3.4-.7,2.3,3.5,1.1Z"/>
    </g>
    <path class="st1" d="M61.2,275.8c.4-.5,1-.9,1.8-1.1.8-.3,1.5-.3,2.3,0s1.5.7,2.1,1.4c.7.7,1.2,1.7,1.6,2.9.4,1.2.6,2.3.4,3.3-.1,1-.4,1.8-.9,2.4s-1.1,1-1.9,1.3c-.7.2-1.4.3-2.1.1-.6-.1-1.2-.5-1.7-.9-.4,1.7-1.4,2.8-3.1,3.4-1.1.3-2.1.4-3,0-.9-.3-1.7-.8-2.4-1.6-.7-.8-1.2-1.7-1.5-2.8s-.5-2.1-.4-3.2c0-1,.4-1.9,1-2.7.6-.8,1.4-1.4,2.5-1.7,1.7-.5,3.2-.2,4.5.9.1-.7.4-1.3.9-1.8ZM65.1,281c.2-.3.2-.5.1-.8,0-.3-.3-.5-.6-.6-.3-.1-.6,0-1,0-.4.1-.7.3-.8.6-.2.3-.2.5,0,.8,0,.3.3.5.5.6s.6.1,1,0c.4-.1.7-.3.9-.6ZM58.8,281.2c-.4-.2-.8-.2-1.2,0-.4.1-.7.4-.9.7s-.2.7,0,1.2.4.7.7.9c.3.2.7.2,1.2,0s.7-.4.9-.7.2-.7,0-1.1c-.1-.4-.4-.7-.7-.9Z"/>
    <path class="st1" d="M131.5,368.9l-11.6,7.3-4.1-3,11.3-6.8-4.7-3.4,2.5-3.4,8.8,6.4-2.1,3Z"/>
    <path class="st4" d="M169.4,65l6.2-2-.6-1.8c-.2.3-.5.6-.9.9-.4.3-.9.5-1.4.7-1,.3-1.9.4-2.7.1-.8-.2-1.5-.7-2.1-1.3s-1-1.4-1.3-2.4c-.6-1.7-.5-3.2.1-4.4s1.8-2.2,3.5-2.7c1.2-.4,2.3-.5,3.4-.4s1.9.5,2.6,1.1c.7.6,1.2,1.4,1.5,2.4l-4.6,1.5c0-.2-.2-.4-.4-.6-.2-.2-.5-.2-.9,0-.4.1-.6.3-.7.6s0,.7,0,1.1c.1.4.3.7.6.8s.6.2.9,0c.3,0,.5-.2.6-.4.1-.2.1-.4,0-.6l4.6-1.5,3.1,9.6-10.5,3.4-1.4-4.2Z"/>
    <g>
      <path class="st1" d="M236.3,50.7c-1.2,1.2-1.7,2.4-1.7,3.4,0,.4,0,.6.2.8.2.2.4.3.6.3.3,0,.5-.2.7-.5s.2-.8.2-1.4h4.8c0,1.4-.3,2.5-.9,3.4-.6.9-1.3,1.6-2.2,2-.9.4-1.9.6-3,.6-1.9,0-3.3-.5-4.2-1.4s-1.3-2.1-1.3-3.5c0-1.5.5-2.9,1.4-4.3,1-1.3,2.2-2.4,3.6-3.4h-5.1s0-4,0-4h11.6s0,3.7,0,3.7c-2,1.5-3.6,2.9-4.8,4.1Z"/>
      <path class="st1" d="M226.6,57.2c-1.1,1.5-2.8,2.2-5.1,2.2-2.3,0-4-.7-5.1-2.2-1.1-1.5-1.7-3.5-1.7-6.1,0-2.6.6-4.6,1.7-6.1,1.1-1.5,2.8-2.2,5.1-2.2,2.3,0,4,.7,5.1,2.2,1.1,1.5,1.6,3.5,1.6,6.1,0,2.6-.6,4.6-1.7,6.1ZM220.1,53.8c.2.6.7.9,1.5.9.7,0,1.2-.3,1.5-.9.2-.6.4-1.5.4-2.7,0-1.2-.1-2.1-.4-2.7-.2-.6-.7-.9-1.5-.9-.7,0-1.2.3-1.5.9-.2.6-.4,1.5-.4,2.7,0,1.2.1,2.1.4,2.7Z"/>
    </g>
    <g>
      <path class="st1" d="M135.7,82l2.7,3.8-6.2,4.5-9.6-13.3,4.2-3.1,6.9,9.5,1.9-1.4Z"/>
      <path class="st1" d="M122.1,87.3c-.2,1.7,0,2.9.6,3.8.2.3.4.5.7.5.2,0,.5,0,.7-.1.2-.2.3-.4.3-.8,0-.3-.3-.8-.7-1.2l3.9-2.8c.8,1.2,1.2,2.3,1.3,3.3,0,1.1-.1,2-.6,2.9-.5.9-1.2,1.6-2,2.2-1.5,1.1-3,1.6-4.2,1.4-1.3-.2-2.3-.9-3.2-2.1-.9-1.2-1.3-2.7-1.3-4.3,0-1.6.3-3.3,1-4.8l-4.2,3-2.4-3.2,9.4-6.8,2.2,3c-.7,2.4-1.2,4.4-1.5,6.1Z"/>
    </g>
    <path class="st4" d="M83.1,120.8c-.3,0-.5.2-.8.5-.3.4-.3.9,0,1.4.4.5,1,1.1,2,1.8-.2-.5-.2-1-.1-1.5.1-.6.3-1.1.7-1.6.8-1.1,1.9-1.8,3.1-2,1.2-.2,2.5.2,3.9,1.2s1.6,1.4,2,2.3c.4.9.5,1.8.4,2.8-.2,1-.6,1.9-1.3,2.9-1.4,1.9-2.9,2.8-4.6,2.8-1.7,0-3.5-.9-5.6-2.4s-3.9-3.4-4.6-5c-.7-1.6-.4-3.3.9-5s1.5-1.6,2.4-2c.9-.4,1.8-.5,2.7-.4.9.1,1.8.4,2.6.9l-2.7,3.8c-.4-.2-.7-.3-1-.2ZM87.1,125.5c0,.3.2.6.6.8s.7.4,1,.3c.3,0,.6-.3.8-.6s.4-.7.3-1c0-.3-.2-.6-.6-.9s-.7-.3-1-.3c-.3,0-.6.3-.8.6s-.3.7-.3,1Z"/>
    <g>
      <path class="st4" d="M81.3,318.1l3.8-2.7,4.5,6.2-13.3,9.6-3.1-4.2,9.5-6.9-1.4-1.9Z"/>
      <path class="st4" d="M91.6,331c0-.3,0-.5-.2-.8-.3-.5-.8-.6-1.4-.4-.6.2-1.4.6-2.3,1.3.5,0,1,0,1.5.4.5.3.9.7,1.3,1.2.8,1.2,1.2,2.4,1,3.6s-1,2.3-2.3,3.3c-.9.7-1.8,1-2.8,1.1s-1.9,0-2.7-.5-1.7-1.1-2.4-2.1c-1.4-1.9-1.8-3.6-1.1-5.2.6-1.6,2-3.1,4.1-4.7,1.6-1.2,3.1-2,4.4-2.4,1.3-.4,2.4-.4,3.4,0,1,.4,1.9,1.2,2.8,2.3,1,1.4,1.4,2.8,1.1,4.2-.3,1.3-1,2.5-2.2,3.4l-2.7-3.8c.3-.3.5-.6.6-.9ZM85.8,333.4c-.3,0-.6,0-1,.3-.4.3-.6.6-.6.9,0,.3,0,.6.3,1,.2.3.5.5.8.6.3,0,.6,0,1-.3.3-.2.5-.5.6-.8,0-.3,0-.7-.3-1s-.5-.5-.8-.6Z"/>
    </g>
    <g>
      <path class="st4" d="M162.7,387.5l1.4-4.4,7.2,2.4-5.1,15.6-5-1.6,3.6-11.2-2.3-.7Z"/>
      <path class="st4" d="M174.5,399.3c.1.3.4.5.7.6.5.2,1,0,1.3-.5.3-.5.7-1.3,1.1-2.5-.4.3-.9.5-1.4.6s-1.1,0-1.8-.2c-1.4-.4-2.3-1.2-2.8-2.3-.5-1.1-.6-2.5,0-4.1.3-1.1.9-1.9,1.6-2.6.7-.6,1.5-1,2.5-1.2,1-.2,2,0,3.1.3,2.2.7,3.6,1.9,4,3.5.4,1.6.3,3.6-.5,6.1-.9,2.8-2,4.8-3.3,5.9-1.3,1.1-3,1.4-5,.7-1.1-.4-2-.9-2.7-1.6-.7-.7-1.1-1.6-1.3-2.5-.2-.9-.2-1.8,0-2.7l4.4,1.4c0,.4,0,.8,0,1.1ZM177.8,394c.3-.1.5-.4.6-.8.1-.4.1-.8,0-1.1-.2-.3-.4-.5-.8-.6s-.7-.1-1,0c-.3.1-.5.4-.6.8-.1.4-.1.7,0,1,.2.3.4.5.8.6.4.1.7.1,1,0Z"/>
    </g>
    <path class="st4" d="M399.1,227.3c-.2.2-.3.4-.3.8,0,.6.3.9.9,1.1.6.2,1.5.3,2.7.3-.4-.3-.7-.7-1-1.2-.2-.5-.4-1.1-.4-1.7,0-1.4.4-2.6,1.3-3.4.9-.9,2.2-1.3,3.8-1.3,1.1,0,2.1.2,2.9.7.8.5,1.5,1.1,1.9,2,.4.9.7,1.9.7,3.1,0,2.3-.7,4-2.2,4.9-1.4.9-3.5,1.4-6.1,1.4-2,0-3.7-.2-4.9-.6-1.3-.4-2.2-1.1-2.8-2-.6-.9-.9-2.1-.9-3.5,0-1.8.5-3.1,1.5-4,1-.9,2.3-1.4,3.7-1.5v4.6c-.4,0-.8.2-1,.4ZM405.2,228.8c.2.2.5.4.9.4.4,0,.8-.1,1-.3.2-.2.3-.6.3-1,0-.4-.1-.7-.3-1-.2-.2-.6-.3-1-.3-.4,0-.7.1-.9.4-.2.2-.3.6-.3,1,0,.4.1.7.3,1Z"/>
    <g>
      <path class="st1" d="M387.9,292.4l-4.4-1.4,2.4-7.2,15.6,5.1-1.6,5-11.2-3.6-.7,2.3Z"/>
      <path class="st1" d="M388.7,281c-1.1-1.5-1.2-3.3-.5-5.5.7-2.2,1.9-3.5,3.7-4.1,1.8-.6,3.9-.5,6.3.3,2.5.8,4.2,2,5.3,3.5,1.1,1.5,1.3,3.4.6,5.5-.7,2.2-1.9,3.6-3.7,4.1-1.8.6-3.9.5-6.3-.3-2.5-.8-4.2-2-5.3-3.5ZM393.9,275.8c-.7,0-1.1.4-1.3,1.1-.2.7,0,1.3.4,1.7.5.4,1.3.8,2.5,1.2,1.2.4,2.1.5,2.7.5.6,0,1.1-.4,1.3-1.1.2-.7,0-1.3-.4-1.7-.5-.4-1.3-.8-2.5-1.2-1.1-.4-2-.5-2.7-.5Z"/>
    </g>
    <g>
      <path class="st1" d="M393.9,185.6l-4.4,1.4-2.4-7.2,15.6-5.1,1.6,5-11.2,3.6.7,2.3Z"/>
      <path class="st1" d="M387,176c-1.2-.7-2.1-1.8-2.7-3.6-.4-1.1-.5-2.1-.4-3.1.1-.9.4-1.7,1-2.3.5-.6,1.2-1.1,2-1.3,1-.3,1.9-.3,2.6,0,.7.3,1.3.7,1.7,1.2h0c0-1.9,1-3.2,2.7-3.7.9-.3,1.8-.3,2.6-.1.8.2,1.6.6,2.2,1.3.6.7,1.1,1.5,1.5,2.6.6,1.8.6,3.4,0,4.8-.5,1.3-1.7,2.3-3.6,3l-1.5-4.6c.5-.1.9-.3,1.1-.6.2-.3.2-.6,0-1.1,0-.3-.2-.4-.5-.5-.2-.1-.5-.1-.8,0-.4.1-.7.4-.8.7-.1.3,0,.8.1,1.4l.3.8-3.8,1.2-.2-.8c-.3-1-.8-1.3-1.6-1.1-.4.1-.6.3-.7.5-.1.2-.1.4,0,.6.2.5.7.6,1.6.4l1.5,4.6c-1.7.5-3.2.4-4.4-.2Z"/>
    </g>
    <path class="st1" d="M330.3,370c.2-1.7,0-2.9-.6-3.8-.2-.3-.4-.5-.7-.5-.2,0-.5,0-.7.1-.2.2-.3.4-.3.8s.3.8.7,1.2l-3.9,2.8c-.8-1.2-1.2-2.3-1.3-3.3,0-1.1.1-2,.6-2.9.5-.9,1.2-1.6,2-2.2,1.5-1.1,3-1.6,4.2-1.4,1.3.2,2.3.9,3.2,2.1.9,1.2,1.3,2.7,1.3,4.3,0,1.6-.3,3.3-1,4.8l4.2-3,2.4,3.2-9.4,6.8-2.2-3c.7-2.4,1.2-4.4,1.5-6.1Z"/>
    <g>
      <path class="st4" d="M271.4,394.2l-1.4-4.4,7.2-2.4,5.1,15.6-5,1.6-3.6-11.2-2.3.7Z"/>
      <path class="st4" d="M290.1,387l-.9,13.7-4.9,1.6,1.2-13.1-5.5,1.8-1.3-4.1,10.3-3.4,1.1,3.5Z"/>
    </g>
    <g>
      <path class="st4" d="M359.5,337.2l-3.8-2.7,4.5-6.2,13.3,9.6-3.1,4.2-9.5-6.9-1.4,1.9Z"/>
      <path class="st4" d="M372.1,319.4l-3.8,5.3,1.5,1.1c0-.4,0-.8.2-1.3s.4-.9.7-1.4c.6-.8,1.3-1.4,2.1-1.7.8-.3,1.6-.3,2.5-.1.8.2,1.7.6,2.5,1.1,1.5,1.1,2.3,2.3,2.5,3.7.2,1.4-.2,2.8-1.2,4.2s-1.6,1.8-2.5,2.3-1.8.7-2.8.6c-.9,0-1.8-.4-2.6-1l2.8-3.9c.2.1.4.2.7.2s.5-.2.7-.5.3-.6.2-.9c-.1-.3-.4-.6-.7-.9s-.7-.4-1-.3-.6.2-.8.5-.3.5-.2.7c0,.2.1.4.3.5l-2.8,3.9-8.1-5.9,6.5-8.9,3.5,2.6Z"/>
    </g>
    <g>
      <path class="st1" d="M338.9,94.5l-2.7,3.8-6.2-4.5,9.6-13.3,4.2,3.1-6.9,9.5,1.9,1.4Z"/>
      <path class="st1" d="M331.1,87.1c0,.7-.3,1.3-.8,1.9s-1.1,1.1-1.8,1.4c-.7.3-1.6.3-2.5.1-1-.2-2-.7-3-1.5s-1.8-1.6-2.3-2.4c-.5-.8-.7-1.7-.7-2.4,0-.8.3-1.5.8-2.2s1-1.1,1.6-1.3c.6-.3,1.2-.3,1.9-.3-.7-1.6-.5-3.1.5-4.5s1.5-1.5,2.4-1.8c.9-.3,1.9-.3,2.9-.1s2,.7,2.9,1.4,1.6,1.4,2.2,2.3.8,1.8.8,2.8c0,1-.3,1.9-1,2.8-1,1.4-2.4,2.1-4.2,1.9.3.6.4,1.3.3,1.9ZM329.9,81.4c.4,0,.7-.3,1-.7s.4-.7.3-1.1c0-.4-.2-.7-.6-1s-.7-.4-1.1-.3c-.4,0-.7.3-1,.7s-.4.7-.3,1.1c0,.4.2.7.6,1s.7.4,1.1.3ZM324.8,85.3c0,.3.1.6.4.7s.5.2.8.1c.3,0,.6-.3.8-.6s.4-.7.3-1c0-.3-.2-.5-.4-.7s-.5-.2-.8-.2c-.3,0-.6.3-.8.6s-.4.7-.4,1Z"/>
    </g>
    <path class="st4" d="M379.2,125.7l-3.4,2.4-11.6.2-3.2-4.3,7.6-5.5-1-1.3,3.5-2.5,1,1.3,2-1.5,3,4.1-2,1.5,4.1,5.7ZM368.4,124.4l4.4-.2-1.4-2-3,2.2Z"/>
    <path class="st4" d="M285.2,65.4l-1.4,4.4-7.2-2.4,5.1-15.6,5,1.6-3.6,11.2,2.3.7Z"/>
  </g>
</svg>